<svg width="74" height="76" viewBox="0 0 74 76" fill="none" xmlns="http://www.w3.org/2000/svg">
<g filter="url(#filter0_d_6_12)">
<path d="M16 0H58V58C58 59.1046 57.1046 60 56 60H18C16.8954 60 16 59.1046 16 58V0Z" fill="#EF4343"/>
<path d="M48.9917 46.457C49.6639 44.2467 50 42.008 50 39.7407C50 38.0127 49.815 36.4621 49.4451 35.0888C49.098 33.8002 48.5879 32.6677 47.915 31.6914C46.5251 29.6862 44.8047 28.6836 42.7539 28.6836C41.9336 28.6836 41.1873 28.8488 40.5151 29.1792C39.8543 29.5096 39.3018 29.9539 38.8574 30.5122C38.4131 31.0705 38.0143 31.7085 37.6611 32.4263C37.3079 33.1554 37.006 33.9188 36.7554 34.7163C36.5047 35.5138 36.2712 36.3114 36.0547 37.1089C35.8382 37.9064 35.616 38.6641 35.3882 39.3818C35.1603 40.111 34.9097 40.7547 34.6362 41.313C34.3742 41.8713 34.0495 42.3156 33.6621 42.646C33.2747 42.9764 32.8361 43.1416 32.3462 43.1416C31.4689 43.1416 30.7625 42.5947 30.2271 41.501C29.6916 40.4186 29.4238 39.0002 29.4238 37.2456C29.4238 35.3771 29.9365 33.0016 30.9619 30.1191L31.2183 29.4526L27.0825 28L26.8433 28.6323C26.2964 30.0337 25.8748 31.361 25.5786 32.6143C25.2938 33.8675 25.1514 35.2746 25.1514 36.8354C25.1514 38.3963 25.2995 39.8034 25.5957 41.0566C25.9033 42.3213 26.2964 43.3581 26.7749 44.167C27.2648 44.9873 27.8345 45.6709 28.4839 46.2178C29.1333 46.776 29.7884 47.1691 30.4492 47.397C31.1214 47.6362 31.7993 47.7559 32.4829 47.7559C33.5425 47.7559 34.4767 47.4881 35.2856 46.9526C36.106 46.4285 36.7611 45.745 37.251 44.9019C37.7409 44.0588 38.1738 43.1245 38.5498 42.0991C38.9258 41.0737 39.2562 40.0483 39.541 39.0229C39.8258 38.009 40.1107 37.0804 40.3955 36.2373C40.6917 35.3942 41.0506 34.7049 41.4722 34.1694C41.8937 33.6453 42.3836 33.3833 42.9419 33.3833C43.7964 33.3833 44.4971 33.9757 45.0439 35.1606C45.5908 36.3569 45.8643 37.7925 45.8643 39.4673C45.8643 41.1649 45.5794 43.0448 45.0098 45.1069L44.8218 45.7563L48.7866 47.1577L48.9917 46.457Z" fill="#082756"/>
</g>
<defs>
<filter id="filter0_d_6_12" x="0" y="-16" width="74" height="92" filterUnits="userSpaceOnUse" color-interpolation-filters="sRGB">
<feFlood flood-opacity="0" result="BackgroundImageFix"/>
<feColorMatrix in="SourceAlpha" type="matrix" values="0 0 0 0 0 0 0 0 0 0 0 0 0 0 0 0 0 0 127 0" result="hardAlpha"/>
<feOffset/>
<feGaussianBlur stdDeviation="8"/>
<feColorMatrix type="matrix" values="0 0 0 0 0 0 0 0 0 0 0 0 0 0 0 0 0 0 0.2 0"/>
<feBlend mode="normal" in2="BackgroundImageFix" result="effect1_dropShadow_6_12"/>
<feBlend mode="normal" in="SourceGraphic" in2="effect1_dropShadow_6_12" result="shape"/>
</filter>
</defs>
</svg>
