<svg width="72" height="72" viewBox="0 0 72 72" fill="none" xmlns="http://www.w3.org/2000/svg">
<path d="M0 4C0 1.79086 1.79086 0 4 0H68C70.2091 0 72 1.79086 72 4V68C72 70.2091 70.2091 72 68 72H4C1.79086 72 0 70.2091 0 68V4Z" fill="#EF4343"/>
<path d="M49.2412 19.6485L14.1277 54.8484L12 59.9994L17.1509 57.8716L52.3508 22.7582L49.2412 19.6485ZM56.2669 12.624L54.7457 14.144L57.8553 17.2537L59.3766 15.7324C59.7758 15.333 60 14.7913 60 14.2266C60 13.6619 59.7758 13.1203 59.3766 12.7208L59.2798 12.624C59.082 12.4262 58.8472 12.2693 58.5887 12.1622C58.3302 12.0551 58.0532 12 57.7734 12C57.4936 12 57.2166 12.0551 56.9581 12.1622C56.6996 12.2693 56.4648 12.4262 56.2669 12.624Z" fill="white" stroke="white" stroke-width="2" stroke-linecap="round" stroke-linejoin="round"/>
</svg>
